<svg width="52" height="52" viewBox="0 0 52 52" fill="none" xmlns="http://www.w3.org/2000/svg">
<path d="M1 23.2222C1 12.7472 1 7.50833 4.25556 4.25556C7.50833 1 12.7472 1 23.2222 1H28.7778C39.2528 1 44.4917 1 47.7444 4.25556C51 7.50833 51 12.7472 51 23.2222V28.7778C51 39.2528 51 44.4917 47.7444 47.7444C44.4917 51 39.2528 51 28.7778 51H23.2222C12.7472 51 7.50833 51 4.25556 47.7444C1 44.4917 1 39.2528 1 28.7778V23.2222Z" stroke="black" stroke-width="2"/>
<path d="M38.5002 17.6668C40.8013 17.6668 42.6668 15.8013 42.6668 13.5002C42.6668 11.199 40.8013 9.3335 38.5002 9.3335C36.199 9.3335 34.3335 11.199 34.3335 13.5002C34.3335 15.8013 36.199 17.6668 38.5002 17.6668Z" fill="black"/>
<path d="M25.9998 34.3332C30.6022 34.3332 34.3332 30.6022 34.3332 25.9998C34.3332 21.3975 30.6022 17.6665 25.9998 17.6665C21.3975 17.6665 17.6665 21.3975 17.6665 25.9998C17.6665 30.6022 21.3975 34.3332 25.9998 34.3332Z" stroke="black" stroke-width="2"/>
</svg>
