<svg width="50" height="50" viewBox="0 0 50 50" fill="none" xmlns="http://www.w3.org/2000/svg">
<circle cx="25" cy="25" r="25" fill="black"/>
<path d="M12 34.892V15.2557H14.9148V18.3239H15.1705C15.5795 17.2756 16.2401 16.4616 17.152 15.8821C18.0639 15.294 19.1591 15 20.4375 15C21.733 15 22.8111 15.294 23.6719 15.8821C24.5412 16.4616 25.2188 17.2756 25.7045 18.3239H25.9091C26.4119 17.3097 27.1662 16.5043 28.1719 15.9077C29.1776 15.3026 30.3835 15 31.7898 15C33.5455 15 34.9815 15.5497 36.098 16.6491C37.2145 17.7401 37.7727 19.4403 37.7727 21.75V34.892H34.7557V21.75C34.7557 20.3011 34.3594 19.2656 33.5668 18.6435C32.7741 18.0213 31.8409 17.7102 30.767 17.7102C29.3864 17.7102 28.3168 18.1278 27.5582 18.9631C26.7997 19.7898 26.4205 20.8381 26.4205 22.108V34.892H23.3523V21.4432C23.3523 20.3267 22.9901 19.4276 22.2656 18.7457C21.5412 18.0554 20.608 17.7102 19.4659 17.7102C18.6818 17.7102 17.9489 17.919 17.267 18.3366C16.5938 18.7543 16.0483 19.3338 15.6307 20.0753C15.2216 20.8082 15.017 21.6562 15.017 22.6193V34.892H12Z" fill="white"/>
</svg>
