<svg width="50" height="50" viewBox="0 0 50 50" fill="none" xmlns="http://www.w3.org/2000/svg">
<path d="M39.6684 7.83333C37.4886 5.66562 36.2874 2.88176 36.2883 0H26.4349V34.4444C26.359 36.3084 25.4556 38.0739 23.9151 39.3693C22.3746 40.6646 20.3171 41.3886 18.176 41.3889C13.648 41.3889 9.88521 38.1667 9.88521 34.1667C9.88521 29.3889 15.1786 25.8056 20.6314 27.2778V18.5C9.6301 17.2222 0 24.6667 0 34.1667C0 43.4167 8.80102 50 18.1441 50C28.1569 50 36.2883 42.9167 36.2883 34.1667V16.6944C40.2838 19.194 45.0809 20.5351 50 20.5278V11.9444C50 11.9444 44.0051 12.1944 39.6684 7.83333Z" fill="black"/>
</svg>
